<svg
      xmlns="http://www.w3.org/2000/svg"
      fillRule="evenodd"
      strokeLinejoin="round"
      strokeMiterlimit="2"
      clipRule="evenodd"
      viewBox="0 0 164 196"
    >
      <path
        fill="#FFF"
        d="M531.516 1253.76v-18.01c0-6.36 2.525-12.45 7.02-16.95a23.984 23.984 0 0116.947-7.02h32.151l33.816 18.54v-18.54h32.534c13.236 0 23.966 10.73 23.966 23.97v147.77c0 6.35-2.525 12.45-7.019 16.94a23.946 23.946 0 01-16.947 7.02H622.41l-34.394-14.83v14.83h-32.533c-13.237 0-23.967-10.73-23.967-23.96v-18.02h12.5v18.02c0 6.33 5.134 11.46 11.467 11.46h20.033v-21.33l49.474 21.33h28.994a11.469 11.469 0 0011.466-11.46v-147.77c0-6.34-5.133-11.47-11.466-11.47H633.95v27.15l-49.518-27.15h-28.949a11.469 11.469 0 00-11.467 11.47v18.01h-12.5zm-11.468 95.77h35.436a5.9 5.9 0 015.904 5.9 5.91 5.91 0 01-5.904 5.91h-35.436a5.91 5.91 0 01-5.904-5.91 5.9 5.9 0 015.904-5.9zm23.968-29.83v25.66h-12.5v-25.66h12.5zm11.468-4.16h-35.436a5.91 5.91 0 01-5.904-5.91 5.9 5.9 0 015.904-5.9h35.436a5.9 5.9 0 015.904 5.9 5.91 5.91 0 01-5.904 5.91zm-11.468-41.64v25.66h-12.5v-25.66h12.5zm11.468-4.16h-35.436a5.91 5.91 0 01-5.904-5.91 5.9 5.9 0 015.904-5.9h35.436a5.9 5.9 0 015.904 5.9 5.91 5.91 0 01-5.904 5.91z"
        transform="translate(-758.025 -1211.78) translate(243.88)"
      ></path>
      <path
        fill="#FEEFDD"
        d="M617.178 1331.74c0-.79-.311-1.54-.865-2.09a2.97 2.97 0 00-2.087-.87h-41.841a2.97 2.97 0 00-2.087.87c-.554.55-.865 1.3-.865 2.09 0 .78.311 1.53.865 2.09a2.96 2.96 0 002.087.86h41.841a2.96 2.96 0 002.087-.86c.554-.56.865-1.31.865-2.09zm23.121-14.74a2.95 2.95 0 00-2.952-2.95h-64.962a2.95 2.95 0 100 5.9h64.962a2.95 2.95 0 002.952-2.95zm-9.401-14.74c0-.78-.311-1.53-.864-2.09a2.965 2.965 0 00-2.088-.86h-55.561a2.96 2.96 0 00-2.087.86 2.973 2.973 0 00-.865 2.09c0 .79.311 1.54.865 2.09a2.97 2.97 0 002.087.87h55.561c.783 0 1.534-.32 2.088-.87.553-.55.864-1.3.864-2.09zm9.401-14.73c0-1.64-1.321-2.96-2.952-2.96h-64.962a2.953 2.953 0 00-2.952 2.96 2.95 2.95 0 002.952 2.95h64.962a2.95 2.95 0 002.952-2.95z"
        transform="translate(-758.025 -1211.78) translate(243.88)"
      ></path>
</svg>