<?xml version="1.0" encoding="UTF-8" standalone="no"?>
<!DOCTYPE svg PUBLIC "-//W3C//DTD SVG 1.1//EN" "http://www.w3.org/Graphics/SVG/1.1/DTD/svg11.dtd">
<svg width="100%" height="100%" viewBox="0 0 164 196" version="1.1" xmlns="http://www.w3.org/2000/svg" xmlns:xlink="http://www.w3.org/1999/xlink" xml:space="preserve" xmlns:serif="http://www.serif.com/" style="fill-rule:evenodd;clip-rule:evenodd;stroke-linejoin:round;stroke-miterlimit:2;">
    <g transform="matrix(1,0,0,1,-758.025,-1211.78)">
        <g transform="matrix(1,0,0,1,243.88,0)">
            <path d="M531.516,1253.76L531.516,1235.75C531.516,1229.39 534.041,1223.3 538.536,1218.8C543.03,1214.31 549.126,1211.78 555.483,1211.78L587.634,1211.78C587.634,1211.78 621.45,1230.32 621.45,1230.32L621.45,1211.78L653.984,1211.78C667.22,1211.78 677.95,1222.51 677.95,1235.75C677.95,1270.77 677.95,1348.49 677.95,1383.52C677.95,1389.87 675.425,1395.97 670.931,1400.46C666.436,1404.96 660.34,1407.48 653.984,1407.48L622.41,1407.48C622.41,1407.48 588.016,1392.65 588.016,1392.65L588.016,1407.48L555.483,1407.48C542.246,1407.48 531.516,1396.75 531.516,1383.52L531.516,1365.5L544.016,1365.5L544.016,1383.52C544.016,1389.85 549.15,1394.98 555.483,1394.98C555.483,1394.98 575.516,1394.98 575.516,1394.98L575.516,1373.65C575.516,1373.65 624.99,1394.98 624.99,1394.98L653.984,1394.98C657.025,1394.98 659.942,1393.77 662.092,1391.62C664.242,1389.47 665.45,1386.56 665.45,1383.52C665.45,1348.49 665.45,1270.77 665.45,1235.75C665.45,1229.41 660.317,1224.28 653.984,1224.28C653.984,1224.28 633.95,1224.28 633.95,1224.28L633.95,1251.43C633.95,1251.43 584.432,1224.28 584.432,1224.28L555.483,1224.28C552.442,1224.28 549.525,1225.49 547.375,1227.64C545.224,1229.79 544.016,1232.71 544.016,1235.75L544.016,1253.76L531.516,1253.76ZM520.048,1349.53L555.484,1349.53C558.745,1349.53 561.388,1352.17 561.388,1355.43C561.388,1355.43 561.388,1355.43 561.388,1355.43C561.388,1358.69 558.745,1361.34 555.484,1361.34L520.048,1361.34C516.787,1361.34 514.144,1358.69 514.144,1355.43C514.144,1355.43 514.144,1355.43 514.144,1355.43C514.144,1352.17 516.787,1349.53 520.048,1349.53ZM544.016,1319.7L544.016,1345.36L531.516,1345.36L531.516,1319.7L544.016,1319.7ZM555.484,1315.54L520.048,1315.54C516.787,1315.54 514.144,1312.89 514.144,1309.63C514.144,1309.63 514.144,1309.63 514.144,1309.63C514.144,1306.37 516.787,1303.73 520.048,1303.73C529.125,1303.73 546.407,1303.73 555.484,1303.73C558.745,1303.73 561.388,1306.37 561.388,1309.63C561.388,1309.63 561.388,1309.63 561.388,1309.63C561.388,1312.89 558.745,1315.54 555.484,1315.54ZM544.016,1273.9L544.016,1299.56L531.516,1299.56L531.516,1273.9L544.016,1273.9ZM555.484,1269.74L520.048,1269.74C516.787,1269.74 514.144,1267.09 514.144,1263.83C514.144,1263.83 514.144,1263.83 514.144,1263.83C514.144,1260.57 516.787,1257.93 520.048,1257.93C529.125,1257.93 546.407,1257.93 555.484,1257.93C558.745,1257.93 561.388,1260.57 561.388,1263.83C561.388,1263.83 561.388,1263.83 561.388,1263.83C561.388,1267.09 558.745,1269.74 555.484,1269.74Z"/>
        </g>
        <g transform="matrix(1,0,0,1,243.88,0)">
            <path d="M617.178,1331.74C617.178,1330.95 616.867,1330.2 616.313,1329.65C615.76,1329.1 615.009,1328.78 614.226,1328.78C605.672,1328.78 580.939,1328.78 572.385,1328.78C571.602,1328.78 570.851,1329.1 570.298,1329.65C569.744,1330.2 569.433,1330.95 569.433,1331.74C569.433,1331.74 569.433,1331.74 569.433,1331.74C569.433,1332.52 569.744,1333.27 570.298,1333.83C570.851,1334.38 571.602,1334.69 572.385,1334.69C580.939,1334.69 605.672,1334.69 614.226,1334.69C615.009,1334.69 615.76,1334.38 616.313,1333.83C616.867,1333.27 617.178,1332.52 617.178,1331.74C617.178,1331.74 617.178,1331.74 617.178,1331.74ZM640.299,1317C640.299,1315.37 638.978,1314.05 637.347,1314.05C625.82,1314.05 583.912,1314.05 572.385,1314.05C570.755,1314.05 569.433,1315.37 569.433,1317C569.433,1317 569.433,1317 569.433,1317C569.433,1318.63 570.755,1319.95 572.385,1319.95C583.912,1319.95 625.82,1319.95 637.347,1319.95C638.978,1319.95 640.299,1318.63 640.299,1317C640.299,1317 640.299,1317 640.299,1317ZM630.898,1302.26C630.898,1301.48 630.587,1300.73 630.034,1300.17C629.48,1299.62 628.729,1299.31 627.946,1299.31C617.56,1299.31 582.771,1299.31 572.385,1299.31C571.602,1299.31 570.851,1299.62 570.298,1300.17C569.744,1300.73 569.433,1301.48 569.433,1302.26C569.433,1302.26 569.433,1302.26 569.433,1302.26C569.433,1303.05 569.744,1303.8 570.298,1304.35C570.851,1304.9 571.602,1305.22 572.385,1305.22C582.771,1305.22 617.56,1305.22 627.946,1305.22C628.729,1305.22 629.48,1304.9 630.034,1304.35C630.587,1303.8 630.898,1303.05 630.898,1302.26C630.898,1302.26 630.898,1302.26 630.898,1302.26ZM640.299,1287.53C640.299,1285.89 638.978,1284.57 637.347,1284.57C625.82,1284.57 583.912,1284.57 572.385,1284.57C570.755,1284.57 569.433,1285.89 569.433,1287.53C569.433,1287.53 569.433,1287.53 569.433,1287.53C569.433,1289.16 570.755,1290.48 572.385,1290.48C583.912,1290.48 625.82,1290.48 637.347,1290.48C638.978,1290.48 640.299,1289.16 640.299,1287.53C640.299,1287.53 640.299,1287.53 640.299,1287.53Z" style="fill:rgb(102,102,102);"/>
        </g>
    </g>
</svg>
